HIERARCHY
ROOT Hips
{
	OFFSET 0.000000 0.000000 0.000000 
	CHANNELS 6 Xposition Yposition Zposition Zrotation Yrotation Xrotation
	JOINT LeftUpLeg
	{
		OFFSET 1.363060 -1.794630 0.839290 
		CHANNELS 3 Zrotation Yrotation Xrotation
		JOINT LeftLeg
		{
			OFFSET 2.448110 -6.726130 0.000000 
			CHANNELS 3 Zrotation Yrotation Xrotation
			JOINT LeftFoot
			{
				OFFSET 2.562200 -7.039590 0.000000 
				CHANNELS 3 Zrotation Yrotation Xrotation
				JOINT LeftToeBase
				{
					OFFSET 0.157640 -0.433110 2.322550 
					CHANNELS 3 Zrotation Yrotation Xrotation
					End Site
					{
						OFFSET 0.000000 0.000000 0.000000 
					}
				}
			}
		}
	}
	JOINT RightUpLeg
	{
		OFFSET -1.305520 -1.794630 0.839290 
		CHANNELS 3 Zrotation Yrotation Xrotation
		JOINT RightLeg
		{
			OFFSET -2.542530 -6.985550 0.000000 
			CHANNELS 3 Zrotation Yrotation Xrotation
			JOINT RightFoot
			{
				OFFSET -2.568260 -7.056230 0.000000 
				CHANNELS 3 Zrotation Yrotation Xrotation
				JOINT RightToeBase
				{
					OFFSET -0.164730 -0.452590 2.363150 
					CHANNELS 3 Zrotation Yrotation Xrotation
					End Site
					{
						OFFSET 0.000000 0.000000 0.000000 
					}
				}
			}
		}
	}
	JOINT Spine
	{
		OFFSET 0.028270 2.035590 -0.193380 
		CHANNELS 3 Zrotation Yrotation Xrotation
		JOINT Spine1
		{
			OFFSET 0.056720 2.048850 -0.042750 
			CHANNELS 3 Zrotation Yrotation Xrotation
			JOINT Neck1
			{
				OFFSET -0.054170 1.746240 0.172020 
				CHANNELS 3 Zrotation Yrotation Xrotation
				JOINT Head
				{
					OFFSET 0.104070 1.761360 -0.123970 
					CHANNELS 3 Zrotation Yrotation Xrotation
					End Site
					{
						OFFSET 0.000000 0.000000 0.000000 
					}
				}
			}
			JOINT LeftArm
			{
				OFFSET 3.362410 1.200890 -0.311210 
				CHANNELS 3 Zrotation Yrotation Xrotation
				JOINT LeftForeArm
				{
					OFFSET 4.983000 -0.000000 -0.000000 
					CHANNELS 3 Zrotation Yrotation Xrotation
					JOINT LeftHand
					{
						OFFSET 3.483560 -0.000000 -0.000000 
						CHANNELS 3 Zrotation Yrotation Xrotation
						JOINT LeftHandIndex1
						{
							OFFSET 0.715260 -0.000000 -0.000000 
							CHANNELS 3 Zrotation Yrotation Xrotation
							End Site
							{
								OFFSET 0.000000 0.000000 0.000000 
							}
						}
					}
				}
			}
			JOINT RightArm
			{
				OFFSET -3.136600 1.374050 -0.404650 
				CHANNELS 3 Zrotation Yrotation Xrotation
				JOINT RightForeArm
				{
					OFFSET -5.241900 -0.000000 -0.000000 
					CHANNELS 3 Zrotation Yrotation Xrotation
					JOINT RightHand
					{
						OFFSET -3.444170 -0.000000 -0.000000 
						CHANNELS 3 Zrotation Yrotation Xrotation
						JOINT RightHandIndex1
						{
							OFFSET -0.622530 -0.000000 -0.000000 
							CHANNELS 3 Zrotation Yrotation Xrotation
							End Site
							{
								OFFSET 0.000000 0.000000 0.000000 
							}
						}
					}
				}
			}
		}
	}
}
MOTION
Frames: 15
Frame Time: 0.041667
5.703033 17.452600 31.762040 178.146001 -79.300409 -164.278408 -20.037012 -36.245874 -33.575759 -0.327216 9.833507 24.395104 1.466701 12.213824 -22.872016 0.144800 2.452200 6.757200 50.177975 23.530117 6.271862 -0.075872 -4.510407 20.768575 -2.480400 -13.640612 -25.076542 -0.010600 -0.666100 1.830500 0.778614 2.077543 -2.816230 -1.670200 1.357897 -4.058823 15.303797 -19.509424 15.311221 5.375000 -9.534100 8.036000 -96.719647 8.855957 4.518718 23.995558 -26.564945 -5.658621 -0.326078 1.478316 31.268460 -7.125000 0.000000 0.000000 86.716743 -2.706976 34.646948 -26.363796 26.230782 -5.776291 -2.881905 0.752380 -10.189678 7.125000 0.000000 0.000000 
5.587599 17.458512 31.747727 179.681545 -78.774031 -165.668630 -18.437565 -37.743403 -33.391360 -0.551079 9.275249 22.812949 1.575726 12.191034 -24.369219 0.444000 4.275500 11.853000 50.957032 25.271682 8.060641 0.113384 -3.973068 19.652155 -2.402075 -14.789030 -25.128900 -0.074500 -1.760700 4.844800 0.821110 2.226544 -2.898063 -1.821387 1.411683 -4.094395 15.296665 -19.319317 15.348246 5.399100 -9.447500 8.016400 -96.778044 9.015649 4.124832 24.001138 -26.569549 -5.653072 -0.340536 1.477168 31.846369 -7.125000 0.000000 0.000000 86.767143 -2.724731 34.563342 -26.133325 25.951788 -5.658992 -2.865241 0.778292 -10.168501 7.125000 0.000000 0.000000 
5.473410 17.481329 31.723769 -179.537743 -78.019693 -166.333307 -16.742183 -39.371133 -33.173737 -0.752654 8.721255 21.283476 1.731105 12.186599 -26.224178 0.866000 5.933600 16.591900 50.765785 24.334983 8.609718 0.211128 -3.636012 18.875520 -2.315942 -13.873892 -23.852068 -0.021100 -0.938100 2.578400 0.795634 2.499950 -2.929097 -1.879532 1.552120 -3.996218 15.363405 -19.122678 15.518136 5.432800 -9.338000 8.090300 -96.682259 9.048363 3.906747 23.988805 -26.550066 -5.644085 -0.348569 1.483024 32.502028 -7.125000 0.000000 0.000000 86.995147 -2.678163 34.198610 -25.928947 25.720003 -5.557811 -2.839833 0.827702 -9.953719 7.125000 0.000000 0.000000 
5.354657 17.488485 31.692136 -179.552557 -77.262759 -166.217598 -15.555219 -40.676639 -33.153257 -0.952543 8.248827 19.978630 1.626097 13.864085 -26.097044 0.433100 4.223000 11.704900 50.617615 23.549660 9.340921 0.297416 -3.327584 18.228320 -2.190565 -13.582542 -22.667025 -0.014800 0.785900 -2.159900 0.689831 2.820438 -3.001283 -1.944411 1.708490 -3.947666 14.939663 -18.869822 15.609601 5.215800 -9.202200 7.971700 -96.476044 9.277379 4.431814 23.946766 -26.538565 -5.714128 -0.344761 1.517347 31.817033 -7.125000 0.000000 0.000000 87.362528 -2.880209 33.945876 -25.790392 25.588385 -5.538598 -2.850804 0.892016 -9.904517 7.125000 0.000000 0.000000 
5.229785 17.482055 31.668801 -179.327275 -76.563024 -166.395899 -14.331814 -42.153733 -32.966119 -1.128332 7.760500 18.704689 1.486335 15.515669 -25.761383 0.205700 2.920100 8.056300 50.536024 23.186093 9.944790 0.322895 -3.169282 17.972982 -2.091550 -13.451417 -21.768806 -0.144500 2.450200 -6.751500 0.645198 3.032350 -3.047899 -2.001524 1.810866 -3.889262 15.033337 -18.976107 15.741497 5.235100 -9.246600 8.065200 -96.545599 9.584400 5.161869 24.059110 -26.623948 -5.731833 -0.320747 1.501269 30.157827 -7.125000 0.000000 0.000000 87.607137 -3.128597 33.862974 -25.732133 25.554968 -5.511732 -2.876088 0.807046 -9.521224 7.125000 0.000000 0.000000 
5.110929 17.477077 31.647435 -178.808946 -75.835092 -166.836861 -12.870571 -43.742610 -32.708327 -1.271940 7.275121 17.476500 1.429129 16.605136 -26.180898 0.358100 3.844300 10.639100 50.427906 23.222603 10.206882 0.310982 -3.122822 17.962596 -1.948761 -13.402828 -20.507059 -0.302000 3.533600 -9.767900 0.692812 3.123013 -3.063874 -1.975237 1.858171 -3.818946 15.200076 -18.822129 15.964118 5.340900 -9.162100 8.240900 -96.781406 9.644672 4.678379 24.046175 -26.603405 -5.693284 -0.306735 1.486500 29.783074 -7.125000 0.000000 0.000000 87.584611 -3.260725 34.073141 -25.759839 25.595756 -5.473116 -2.882732 0.628351 -9.219820 7.125000 0.000000 0.000000 
4.991035 17.466498 31.624203 -179.397114 -75.328787 -166.463485 -12.265277 -45.027566 -32.335964 -1.351516 6.966414 16.767626 1.317020 17.619961 -25.867911 0.420200 4.160500 11.528700 50.111158 22.736824 10.788444 0.311196 -2.988838 17.784088 -1.845154 -13.075941 -19.395037 -0.385800 3.988900 -11.045500 0.796986 3.070496 -3.070556 -1.712598 1.850494 -3.916787 14.778445 -18.715813 15.985125 5.166100 -9.115000 8.178900 -97.102658 9.734213 3.743879 23.805544 -26.330432 -5.557821 -0.267166 1.482311 29.990992 -7.125000 0.000000 0.000000 87.437015 -3.373308 34.404817 -25.597655 25.394790 -5.433847 -2.908496 0.655300 -9.516043 7.125000 0.000000 0.000000 
4.869897 17.461416 31.603461 -179.570558 -74.606082 -166.009109 -11.440970 -45.761467 -32.649910 -1.392119 6.821071 16.380523 1.252423 18.156978 -25.686546 0.260100 3.280800 9.061600 49.643627 22.533884 10.875225 0.289201 -2.916881 17.587957 -1.974150 -11.541623 -19.881237 -0.194700 2.841300 -7.837300 0.906489 3.161165 -3.222597 -1.401480 1.908829 -3.940120 14.535268 -18.405673 15.996444 5.107900 -8.983500 8.070000 -97.425154 9.913559 2.880855 23.622929 -26.128618 -5.454642 -0.209362 1.482582 30.671383 -7.125000 0.000000 0.000000 87.375116 -3.483227 34.669524 -25.180398 24.939971 -5.389734 -2.979553 0.836136 -9.855644 7.125000 0.000000 0.000000 
4.746685 17.457371 31.580643 -178.578395 -74.003430 -166.668479 -10.453154 -46.093794 -32.770658 -1.407668 6.655660 15.933521 1.371162 17.483350 -26.516697 0.311200 3.586200 9.915200 49.762868 22.789952 11.041535 0.238421 -2.959821 17.735853 -2.092880 -10.553240 -20.546938 -0.070100 1.707500 -4.698100 0.941799 3.312432 -3.370634 -1.445153 1.972654 -3.950405 14.638200 -18.334659 15.933304 5.157900 -8.958300 8.006300 -97.455861 10.154472 2.377180 23.648020 -26.208438 -5.522728 -0.223259 1.504516 31.737729 -7.125000 0.000000 0.000000 87.596851 -3.634860 34.739910 -24.823101 24.571353 -5.359882 -3.021534 1.013915 -9.590083 7.125000 0.000000 0.000000 
4.619843 17.449178 31.555130 -178.288251 -73.579657 -166.870659 -10.008058 -46.328367 -32.475156 -1.374129 6.517556 15.617937 1.656013 15.502921 -27.875049 0.828600 5.807400 16.226500 49.870301 22.816263 11.404159 0.187768 -3.015952 18.026446 -2.024583 -10.703460 -20.026963 -0.179400 2.728100 -7.522600 0.766800 3.552051 -3.442382 -1.758952 2.069096 -3.951618 14.851913 -18.446099 15.778806 5.214000 -9.011000 7.940100 -97.102368 10.351796 2.609231 23.566282 -26.139419 -5.567170 -0.258747 1.538465 31.920561 -7.125000 0.000000 0.000000 88.097686 -3.849094 34.364945 -24.717310 24.472683 -5.350636 -3.001181 1.125397 -9.233366 7.125000 0.000000 0.000000 
4.482836 17.437769 31.536772 -178.987639 -73.218344 -166.380264 -10.854849 -46.066784 -31.819438 -1.335169 6.467261 15.584988 1.663166 14.434613 -27.026532 0.800300 5.709800 15.944700 49.355552 21.877019 11.603017 0.093845 -3.102766 18.384950 -1.990157 -9.914251 -19.553978 -0.339400 3.743600 -10.356400 0.586059 3.670847 -3.386122 -1.954325 2.123242 -3.832048 14.857893 -18.508200 15.895489 5.163500 -9.016200 8.012300 -96.837785 10.341639 2.499120 23.446713 -25.935283 -5.455353 -0.288408 1.535010 32.425988 -7.125000 0.000000 0.000000 88.376086 -4.036490 34.092512 -24.698311 24.469062 -5.397222 -2.997632 1.226617 -9.660298 7.125000 0.000000 0.000000 
4.343755 17.421071 31.525986 -179.103928 -73.054726 -166.417647 -12.167618 -45.177148 -31.188020 -1.310923 6.446773 15.625566 1.430857 14.420255 -24.092664 0.209900 2.949800 8.139100 49.159554 21.316121 11.825664 -0.024658 -3.258626 18.929542 -2.012466 -9.128901 -19.599903 -0.346700 3.783200 -10.467600 0.517133 3.591430 -3.408803 -2.134599 2.071413 -3.839026 14.647306 -18.431513 16.028938 5.029500 -8.963400 8.002800 -96.682534 10.485933 1.459647 23.493722 -25.903739 -5.353397 -0.326053 1.509576 34.210044 -7.125000 0.000000 0.000000 88.800246 -4.338964 33.543357 -24.623216 24.395583 -5.380823 -2.990025 1.267245 -9.526942 7.125000 0.000000 0.000000 
4.206749 17.400121 31.511259 -179.448033 -72.931546 -166.235197 -13.362886 -44.377929 -30.533895 -1.239807 6.492734 15.856275 1.389825 13.248882 -22.561612 0.102800 2.067900 5.693500 49.211332 21.273724 12.441948 -0.098664 -3.321251 19.307414 -1.964863 -9.246502 -19.226617 -0.412100 4.120900 -11.417100 0.608795 3.468679 -3.543595 -2.032237 2.012871 -4.062305 14.557169 -17.762306 16.327599 5.047700 -8.640000 7.995800 -96.929334 10.836935 0.579400 23.545551 -25.947647 -5.325559 -0.346207 1.488320 35.318602 -7.125000 0.000000 0.000000 89.380463 -4.948692 31.883751 -24.694078 24.424164 -5.297658 -2.941634 1.190274 -7.758090 7.125000 0.000000 0.000000 
4.067254 17.385601 31.481700 -179.236698 -72.273191 -166.547196 -14.079198 -43.582046 -29.855839 -1.146579 6.639213 16.348149 1.450298 11.841325 -22.647831 0.222700 3.038000 8.384600 49.255616 21.243032 13.102363 -0.150662 -3.304962 19.466490 -1.898657 -8.852915 -18.624598 -0.479400 4.440000 -12.318100 0.758831 3.589674 -3.562845 -1.771090 2.095821 -4.041589 14.582955 -17.721581 16.462621 5.113300 -8.635500 8.094800 -97.270214 11.021005 1.216517 23.311218 -25.704775 -5.272114 -0.274136 1.503054 33.573988 -7.125000 0.000000 0.000000 89.661624 -5.365155 30.795363 -24.699095 24.404484 -5.264764 -2.932274 1.165079 -6.939275 7.125000 0.000000 0.000000 
3.919150 17.360087 31.458261 -178.171408 -71.743795 -167.756118 -14.610631 -42.833191 -29.061211 -1.085497 6.684035 16.604042 1.423235 11.146739 -21.987219 0.210300 2.952600 8.146900 49.521960 20.689534 13.480227 -0.244205 -3.442128 20.037743 -1.719724 -9.091819 -17.116615 -1.224700 7.018900 -19.771500 0.693294 3.730386 -3.457833 -2.112102 2.146414 -3.741683 14.320556 -17.741266 16.404987 4.919900 -8.622900 7.994800 -97.017584 11.072910 2.021082 22.997229 -25.343234 -5.195060 -0.177723 1.539720 31.825531 -7.125000 0.000000 0.000000 89.977408 -5.469944 31.135792 -24.554891 24.262319 -5.204260 -2.928430 1.151143 -7.772657 7.125000 0.000000 0.000000 
